<svg width="18" height="18" viewBox="0 0 18 18" fill="none" xmlns="http://www.w3.org/2000/svg">
<path fill-rule="evenodd" clip-rule="evenodd" d="M8.78185 0.666016C13.2568 0.666016 16.8969 4.30602 16.8969 8.78102C16.8969 10.8923 16.0866 12.8179 14.7607 14.2631L17.3697 16.8666C17.6139 17.1108 17.6147 17.5058 17.3705 17.7499C17.2488 17.8733 17.088 17.9341 16.928 17.9341C16.7689 17.9341 16.6088 17.8733 16.4863 17.7516L13.8459 15.1185C12.4569 16.2309 10.6957 16.8968 8.78185 16.8968C4.30685 16.8968 0.666016 13.256 0.666016 8.78102C0.666016 4.30602 4.30685 0.666016 8.78185 0.666016ZM8.78185 1.91602C4.99602 1.91602 1.91602 4.99518 1.91602 8.78102C1.91602 12.5668 4.99602 15.6468 8.78185 15.6468C12.5668 15.6468 15.6469 12.5668 15.6469 8.78102C15.6469 4.99518 12.5668 1.91602 8.78185 1.91602Z" fill="#A5A5A5"/>
</svg>
